<?xml version="1.0" encoding="iso-8859-1"?>
<!-- Generator: Adobe Illustrator 17.1.0, SVG Export Plug-In . SVG Version: 6.00 Build 0)  -->
<!DOCTYPE svg PUBLIC "-//W3C//DTD SVG 1.1//EN" "http://www.w3.org/Graphics/SVG/1.1/DTD/svg11.dtd">
<svg version="1.1" id="Capa_1" xmlns="http://www.w3.org/2000/svg" xmlns:xlink="http://www.w3.org/1999/xlink" x="0px" y="0px"
	 viewBox="0 0 334.938 334.938" style="enable-background:new 0 0 334.938 334.938;" xml:space="preserve">
<path d="M113.117,75.057c20.693,0,37.528-16.835,37.528-37.528S133.81,0,113.117,0c-20.694,0-37.53,16.835-37.53,37.529
	S92.423,75.057,113.117,75.057z M113.117,18c10.768,0,19.528,8.761,19.528,19.529s-8.76,19.528-19.528,19.528
	c-10.769,0-19.53-8.76-19.53-19.528S102.348,18,113.117,18z M305.12,278.016l-21.596-65.589c-1.554-4.72-6.641-7.289-11.363-5.733
	l-90.316,29.737c-2.268,0.746-4.145,2.363-5.221,4.494c-1.075,2.131-1.26,4.602-0.513,6.869l21.596,65.591
	c0.747,2.268,2.363,4.145,4.495,5.221c1.269,0.64,2.659,0.965,4.054,0.965c0.948,0,1.898-0.149,2.815-0.452l90.316-29.739
	C304.107,287.825,306.674,282.737,305.12,278.016z M198.613,258.583l-2.591-7.871l73.219-24.107l2.663,8.087l-31.97,25.141
	L198.613,258.583z M211.989,299.206l-7.386-22.434l38.054,1.151c2.111,0.06,4.176-0.616,5.835-1.921l29.401-23.121l7.315,22.216
	L211.989,299.206z M123.971,150.438L101.54,326.96c-0.081,0.715-0.246,1.404-0.484,2.058c-1.278,3.515-4.648,5.918-8.446,5.918
	c-0.07,0-0.141-0.001-0.211-0.002H68.282c-4.971,0-9-4.029-9-9s4.029-9,9-9h16.387l21.446-168.764
	c0.626-4.931,5.137-8.416,10.063-7.794C121.108,141.002,124.598,145.507,123.971,150.438z M175.836,324.561
	c0.167,1.069,0.135,2.138-0.074,3.161c-0.224,1.109-0.651,2.144-1.241,3.064c-0.893,1.396-2.174,2.556-3.755,3.296
	c-0.557,0.262-1.146,0.469-1.759,0.613c-0.689,0.164-1.383,0.243-2.068,0.243c-0.088,0-0.177-0.001-0.265-0.004h-24.05
	c-4.971,0-9-4.029-9-9s4.029-9,9-9h11.763l-28.265-83.4c-1.595-4.708,0.928-9.817,5.635-11.413
	c4.709-1.595,9.817,0.928,11.413,5.635l32.22,95.072C175.593,323.382,175.744,323.961,175.836,324.561z M75.103,147.651
	l-28.386,70.612c-1.412,3.511-4.788,5.646-8.354,5.646c-1.118,0-2.253-0.209-3.354-0.652c-4.612-1.854-6.848-7.096-4.994-11.708
	l28.386-70.611c8.601-21.403,19.841-44.58,44.475-48.642c5.717-0.943,38.648-1.004,45.077,0.198
	c23.823,4.451,38.565,26.736,50.514,47.274l29.31,50.38c5.762-0.819,11.158-0.598,15.075,1.215
	c4.511,2.088,6.475,7.437,4.387,11.948c-2.074,4.48-7.363,6.447-11.854,4.43c-4.607-1.387-21.158,4.259-24.608,7.735
	c-2.9,3.908-8.403,4.811-12.405,1.994c-4.065-2.86-5.041-8.475-2.18-12.54c2.273-3.23,7.496-6.713,13.815-9.533l-27.098-46.578
	c-10.398-17.873-21.917-35.579-38.263-38.633c-4.264-0.726-34.406-0.83-38.844-0.131C91.898,112.35,83.747,126.142,75.103,147.651z"
	/>
<g>
</g>
<g>
</g>
<g>
</g>
<g>
</g>
<g>
</g>
<g>
</g>
<g>
</g>
<g>
</g>
<g>
</g>
<g>
</g>
<g>
</g>
<g>
</g>
<g>
</g>
<g>
</g>
<g>
</g>
</svg>
