<svg id="_x31__x2C_5" enable-background="new 0 0 24 24" height="512" viewBox="0 0 24 24" width="512" xmlns="http://www.w3.org/2000/svg"><path d="m21.25 24h-17.5c-1.517 0-2.75-1.233-2.75-2.75v-18.5c0-.414.336-.75.75-.75s.75.336.75.75v18.5c0 .689.561 1.25 1.25 1.25h16.75v-17.75c0-.414.336-.75.75-.75s.75.336.75.75v18.5c0 .414-.336.75-.75.75z"/><path d="m21.25 5.5h-17.5c-1.517 0-2.75-1.233-2.75-2.75s1.233-2.75 2.75-2.75h15.5c.414 0 .75.336.75.75v3.25h1.25c.414 0 .75.336.75.75s-.336.75-.75.75zm-17.5-4c-.689 0-1.25.561-1.25 1.25s.561 1.25 1.25 1.25h14.75v-2.5z"/><path d="m14.75 20h-5.5c-.965 0-1.75-.785-1.75-1.75v-3.5c0-.965.785-1.75 1.75-1.75h5.5c.965 0 1.75.785 1.75 1.75v3.5c0 .965-.785 1.75-1.75 1.75zm-5.5-5.5c-.138 0-.25.112-.25.25v3.5c0 .138.112.25.25.25h5.5c.138 0 .25-.112.25-.25v-3.5c0-.138-.112-.25-.25-.25z"/><path d="m13.75 14.5h-3.5c-.414 0-.75-.336-.75-.75v-2.25c0-1.379 1.121-2.5 2.5-2.5s2.5 1.121 2.5 2.5v2.25c0 .414-.336.75-.75.75zm-2.75-1.5h2v-1.5c0-.552-.448-1-1-1s-1 .448-1 1z"/></svg>