<svg height="480pt" viewBox="0 0 480 480.00078" width="480pt" xmlns="http://www.w3.org/2000/svg"><path d="m314.878906 229.121094c.039063-6.378906-2.464844-12.511719-6.957031-17.039063-9.535156-9.03125-24.46875-9.03125-34 0l-33.921875 34-33.917969-34c-9.535156-9.03125-24.46875-9.03125-34 0-4.519531 4.503907-7.0625 10.617188-7.0625 17 0 6.378907 2.542969 12.496094 7.0625 17l19.917969 19.917969c3.136719 3.136719 8.222656 3.136719 11.359375 0s3.136719-8.222656 0-11.359375l-19.917969-19.917969c-3.101562-3.121094-3.101562-8.160156 0-11.28125 3.121094-3.101562 8.160156-3.101562 11.277344 0l39.601562 40c1.503907 1.515625 3.546876 2.367188 5.679688 2.367188s4.179688-.851563 5.679688-2.367188l39.601562-40c3.121094-3.101562 8.160156-3.101562 11.277344 0 3.105468 3.121094 3.105468 8.160156 0 11.28125l-40 39.597656c-1.511719 1.503907-2.363282 3.546876-2.363282 5.679688s.851563 4.179688 2.363282 5.679688l40 39.601562c3.105468 3.121094 3.105468 8.160156 0 11.28125-3.117188 3.101562-8.15625 3.101562-11.277344 0l-39.601562-40c-1.5-1.515625-3.546876-2.367188-5.679688-2.367188s-4.175781.851563-5.679688 2.367188l-39.601562 40c-3.117188 3.101562-8.15625 3.101562-11.277344 0-3.101562-3.121094-3.101562-8.160156 0-11.28125l39.597656-39.601562c3.136719-3.136719 3.136719-8.222657 0-11.359376-3.136718-3.136718-8.222656-3.136718-11.359374 0l-39.597657 40c-4.519531 4.503907-7.0625 10.621094-7.0625 17 0 6.378907 2.542969 12.496094 7.0625 17 9.53125 9.03125 24.464844 9.03125 34 0l33.917969-34.398437 33.921875 34c9.386719 9.386719 24.609375 9.386719 34 0 9.386719-9.390625 9.386719-24.613281 0-34l-34-33.921875 34-33.917969c4.472656-4.511719 6.972656-10.609375 6.957031-16.960937zm0 0"/><path d="m64 344v-32c0-4.417969-3.582031-8-8-8s-8 3.582031-8 8v32c0 4.417969 3.582031 8 8 8s8-3.582031 8-8zm0 0"/><path d="m56 368c-30.925781 0-56 25.074219-56 56 0 30.929688 25.074219 56 56 56 30.929688 0 56-25.070312 56-56 0-30.925781-25.070312-56-56-56zm0 96c-22.089844 0-40-17.90625-40-40 0-22.089844 17.910156-40 40-40s40 17.910156 40 40c0 22.09375-17.910156 40-40 40zm0 0"/><path d="m440 376c0 4.417969-3.582031 8-8 8s-8-3.582031-8-8 3.582031-8 8-8 8 3.582031 8 8zm0 0"/><path d="m440 344v-40c0-4.417969-3.582031-8-8-8s-8 3.582031-8 8v40c0 4.417969 3.582031 8 8 8s8-3.582031 8-8zm0 0"/><path d="m72.960938 407.039062c-3.121094-3.101562-8.160157-3.101562-11.28125 0l-5.679688 5.683594-5.679688-5.683594c-3.175781-2.714843-7.90625-2.535156-10.859374.421876-2.957032 2.953124-3.140626 7.6875-.421876 10.859374l5.679688 5.679688-5.679688 5.679688c-3.101562 3.121093-3.101562 8.160156 0 11.28125 3.121094 3.101562 8.160157 3.101562 11.28125 0l5.679688-5.679688 5.679688 5.679688c3.121093 3.101562 8.160156 3.101562 11.28125 0 3.101562-3.121094 3.101562-8.160157 0-11.28125l-5.679688-5.679688 5.679688-5.679688c3.101562-3.121093 3.101562-8.160156 0-11.28125zm0 0"/><path d="m448.960938 402.320312c-3.121094-3.101562-8.160157-3.101562-11.28125 0l-5.679688 5.679688-5.679688-5.679688c-3.121093-3.101562-8.160156-3.101562-11.28125 0-1.511718 1.503907-2.363281 3.546876-2.363281 5.679688s.851563 4.179688 2.363281 5.679688l5.679688 5.601562-5.679688 5.679688c-3.136718 3.113281-3.152343 8.183593-.039062 11.320312 3.117188 3.136719 8.183594 3.15625 11.320312.039062l5.679688-5.679687 5.679688 5.679687c3.136718 3.117188 8.207031 3.097657 11.320312-.039062 3.117188-3.136719 3.097656-8.207031-.039062-11.320312l-5.679688-5.679688 5.679688-5.601562c1.515624-1.5 2.367187-3.546876 2.367187-5.679688s-.851563-4.175781-2.367187-5.679688zm0 0"/><path d="m176 464h-48c-4.417969 0-8 3.582031-8 8s3.582031 8 8 8h48c4.417969 0 8-3.582031 8-8s-3.582031-8-8-8zm0 0"/><path d="m240 448c-4.417969 0-8 3.582031-8 8v8h-16c-4.417969 0-8 3.582031-8 8s3.582031 8 8 8h24c4.417969 0 8-3.582031 8-8v-16c0-4.417969-3.582031-8-8-8zm0 0"/><path d="m392 408h-32c-4.417969 0-8 3.582031-8 8s3.582031 8 8 8h32c4.417969 0 8-3.582031 8-8s-3.582031-8-8-8zm0 0"/><path d="m411.199219 114.160156c-17.566407-66.988281-77.945313-113.816406-147.199219-114.160156-60.09375-.191406-114.589844 35.238281-138.800781 90.242188-6.964844-1.496094-14.074219-2.25-21.199219-2.242188-48.953125.136719-91.1875 34.394531-101.417969 82.269531s14.3125 96.402344 58.9375 116.53125c1.035157.441407 2.15625.660157 3.28125.640625 3.910157.175782 7.371094-2.503906 8.183594-6.332031.816406-3.824219-1.261719-7.679687-4.902344-9.109375-40.964843-19.492188-60.398437-66.929688-44.882812-109.558594s60.890625-66.476562 104.800781-55.082031c3.984375 1.152344 8.183594-.933594 9.679688-4.796875 20.132812-52.21875 70.355468-86.632812 126.320312-86.5625 63.742188.3125 118.824219 44.609375 132.800781 106.800781.714844 3.207031 3.316407 5.648438 6.558594 6.160157 34.914063 5.578124 60.613281 35.683593 60.640625 71.039062-.007812 31.808594-20.886719 59.84375-51.359375 68.960938-4.242187 1.257812-6.660156 5.71875-5.398437 9.960937 1.257812 4.242187 5.714843 6.65625 9.957031 5.398437 37.160156-11.296874 62.621093-45.484374 62.800781-84.320312.164062-41.25-28.503906-77.015625-68.800781-85.839844zm0 0"/><path d="m354.960938 367.121094c3.648437 2.425781 8.574218 1.460937 11.039062-2.160156 45.179688-66.5 30.765625-156.679688-32.894531-205.78125-63.664063-49.097657-154.546875-40.132813-207.390625 20.457031-52.839844 60.589843-49.359375 151.851562 7.941406 208.242187 57.304688 56.390625 148.609375 58.40625 208.34375 4.601563 3.269531-2.980469 3.503906-8.050781.519531-11.320313-2.980469-3.269531-8.050781-3.5-11.320312-.519531-53.433594 47.8125-134.855469 45.761719-185.8125-4.679687-50.960938-50.445313-53.839844-131.839844-6.574219-185.757813s128.339844-61.722656 185.019531-17.804687c56.679688 43.917968 69.375 124.367187 28.96875 183.601562-1.191406 1.761719-1.632812 3.921875-1.226562 6.007812.40625 2.085938 1.621093 3.925782 3.386719 5.113282zm0 0"/></svg>