<svg id="_x31__x2C_5" enable-background="new 0 0 24 24" height="512" viewBox="0 0 24 24" width="512" xmlns="http://www.w3.org/2000/svg"><path d="m19.25 20h-14.5c-.414 0-.75-.336-.75-.75s.336-.75.75-.75h14.5c.414 0 .75.336.75.75s-.336.75-.75.75z"/><path d="m17.25 24h-10.5c-1.517 0-2.75-1.233-2.75-2.75v-18.5c0-1.517 1.233-2.75 2.75-2.75h10.5c1.517 0 2.75 1.233 2.75 2.75v18.5c0 1.517-1.233 2.75-2.75 2.75zm-10.5-22.5c-.689 0-1.25.561-1.25 1.25v18.5c0 .689.561 1.25 1.25 1.25h10.5c.689 0 1.25-.561 1.25-1.25v-18.5c0-.689-.561-1.25-1.25-1.25z"/><path d="m13.75 16c-.414 0-.75-.336-.75-.75v-5.5c0-.552-.449-1-1-1s-1 .448-1 1v5.5c0 .414-.336.75-.75.75s-.75-.336-.75-.75v-5.5c0-1.379 1.122-2.5 2.5-2.5s2.5 1.121 2.5 2.5v5.5c0 .414-.336.75-.75.75z"/><path d="m16.25 14c-.414 0-.75-.336-.75-.75v-3.5c0-1.93-1.57-3.5-3.5-3.5s-3.5 1.57-3.5 3.5v3.5c0 .414-.336.75-.75.75s-.75-.336-.75-.75v-3.5c0-2.757 2.243-5 5-5s5 2.243 5 5v3.5c0 .414-.336.75-.75.75z"/></svg>