<svg id="_x31__x2C_5" enable-background="new 0 0 24 24" height="512" viewBox="0 0 24 24" width="512" xmlns="http://www.w3.org/2000/svg"><path d="m17.25 20.5h-14.5c-.414 0-.75-.336-.75-.75s.336-.75.75-.75h14.5c.414 0 .75.336.75.75s-.336.75-.75.75z"/><path d="m15.25 24h-10.5c-1.517 0-2.75-1.233-2.75-2.75v-18.5c0-1.517 1.233-2.75 2.75-2.75h10.5c1.262 0 2.358.854 2.667 2.076.102.401-.142.809-.543.911-.402.101-.81-.142-.911-.543-.141-.556-.639-.944-1.213-.944h-10.5c-.689 0-1.25.561-1.25 1.25v18.5c0 .689.561 1.25 1.25 1.25h10.5c.689 0 1.25-.561 1.25-1.25v-2.5c0-.414.336-.75.75-.75s.75.336.75.75v2.5c0 1.517-1.233 2.75-2.75 2.75z"/><path d="m20.25 16h-5.5c-.965 0-1.75-.785-1.75-1.75v-3.5c0-.965.785-1.75 1.75-1.75h5.5c.965 0 1.75.785 1.75 1.75v3.5c0 .965-.785 1.75-1.75 1.75zm-5.5-5.5c-.138 0-.25.112-.25.25v3.5c0 .138.112.25.25.25h5.5c.138 0 .25-.112.25-.25v-3.5c0-.138-.112-.25-.25-.25z"/><path d="m19.25 10.5h-3.5c-.414 0-.75-.336-.75-.75v-2.25c0-1.378 1.122-2.5 2.5-2.5s2.5 1.122 2.5 2.5v2.25c0 .414-.336.75-.75.75zm-2.75-1.5h2v-1.5c0-.551-.449-1-1-1s-1 .449-1 1z"/></svg>